<svg width="896" height="375" viewBox="0 0 896 375" fill="none" xmlns="http://www.w3.org/2000/svg">
<path fill-rule="evenodd" clip-rule="evenodd" d="M371.5 1.52504C317.788 10.164 270.719 47.608 250.854 97.5C249.102 101.9 247.531 105.675 247.362 105.889C247.193 106.104 244.455 105.549 241.277 104.658C226.985 100.648 206.997 100.632 191.5 104.619C184.053 106.535 170.996 112.573 163.308 117.656C145.14 129.669 129.59 150.696 122.686 172.585C120.018 181.047 117.475 199.467 118.578 202.343C119.816 205.569 116.531 208.617 110.514 209.826C100.57 211.823 92.2548 216.547 83.9748 224.905C75.9798 232.975 72.1348 239.547 69.5078 249.631C66.4908 261.212 67.9668 268 73.4998 268C76.7858 268 78.9998 265.439 78.9998 261.639C78.9998 259.869 79.6898 255.772 80.5328 252.535C85.5078 233.434 102.535 220.054 121.921 220.012C130.556 219.993 130.948 219.253 130.32 204.164C129.937 194.959 130.203 189.583 131.294 184.483C138.197 152.216 161.361 126.257 192 116.455C202.399 113.128 219.382 112.039 230.408 113.992C261.352 119.473 286.431 140.396 295.566 168.351C297.03 172.833 298.933 177.059 299.794 177.742C300.908 178.625 303.694 178.806 309.43 178.367C337.123 176.249 360 197.4 360 225.121C360 237.041 356.483 246.445 348.411 256.106C346.535 258.352 345 260.961 345 261.903C345 264.252 347.053 266.665 349.725 267.458C354.453 268.862 364.967 255.083 369.152 242C372.06 232.906 372.056 217.067 369.142 208C361.453 184.075 338.948 167 315.106 167C308.217 167 307.78 166.604 302.718 155.756C294.25 137.61 279.528 121.831 262.906 113.086L258.317 110.672L260.173 105.787C275.65 65.056 311.071 30.904 351.036 18.181C367.608 12.905 376.711 11.546 395.5 11.546C420.455 11.546 438.431 15.706 460.544 26.597C486.04 39.155 504.992 57.457 523.351 87.25C525.408 90.588 526.702 90.642 539.047 87.902C549.966 85.48 567.71 85.018 578 86.888C594.921 89.964 612.446 97.896 625.635 108.448C644.46 123.51 657.137 144.022 662.727 168.466C663.784 173.089 664.374 180.688 664.448 190.633C664.598 210.747 665.878 212.284 676.849 205.512C683.813 201.214 691.566 198.429 700.604 196.978C723.501 193.304 749.568 206.703 760.907 227.976C764.305 234.353 768 247.244 768 252.726C768 257.365 769.602 260 772.422 260C773.716 260 778.538 258.008 783.137 255.574C810.817 240.923 843.182 245.853 865 268.044C872.815 275.992 878.129 284.725 881.709 295.5C884.022 302.463 884.365 305.12 884.353 316C884.343 325.683 883.898 329.852 882.379 334.5L880.418 340.5L823.959 340.533C773.829 340.563 771.724 340.507 805.178 340.033C841.406 339.521 842.966 339.419 845.678 337.408C849.787 334.362 853.003 329.161 852.978 325.602C852.953 322.06 850.511 316.273 846.651 310.61C844.8 307.894 844 305.427 844 302.432C844 295.448 839.432 292.733 835.281 297.25C832.614 300.152 825 315.388 825 317.823C825 320.23 828.071 323 830.74 323C831.885 323 833.993 321.609 835.424 319.908L838.025 316.816L839.503 320.352C841.256 324.55 840.609 326.818 837.299 328.077C834.633 329.09 799.864 329.338 796.25 328.37C792.088 327.254 793.951 326.298 801.53 325.657C813.565 324.64 817 321.985 817 313.701C817 308.45 814.295 304.439 809.364 302.379C804.602 300.389 800.209 300.689 794.383 303.402C786.346 307.144 781.14 315.477 781.044 324.75L781 329H776.393C773.09 329 771.937 328.646 772.318 327.75C780.958 307.44 781.661 303.291 776.755 301.577C774.534 300.801 773.452 301.029 771.096 302.771C768.599 304.617 768.012 304.72 766.991 303.489C766.335 302.699 764.226 301.758 762.303 301.397C751.899 299.445 739.821 310.276 738.326 322.898L737.721 328H731.861C728.637 328 726 327.555 726 327.012C726 326.468 727.601 322.155 729.558 317.427C733.724 307.363 733.753 303.975 729.682 302.551C727.571 301.813 726.196 301.941 724.204 303.059C721.806 304.405 721.201 304.377 718.061 302.776C713.67 300.537 710.558 300.561 705.5 302.871C697.416 306.563 691.984 314.493 691.198 323.75L690.752 329H684.269C679.486 329 677.916 328.672 678.28 327.75C678.552 327.063 680.4 322.588 682.387 317.807C684.374 313.025 686 307.953 686 306.535C686 301.485 677.787 300.532 674.819 305.238C674.034 306.482 671.67 311.656 669.565 316.737C665.416 326.748 664.857 327.496 660.754 328.526C656.396 329.619 656.307 326.899 660.363 316.651C664.527 306.13 664.682 304.927 662.171 302.655C657.09 298.056 652.66 302.354 646.883 317.487L642.5 328.966L636.25 328.983C632.813 328.992 630 328.787 630 328.526C630 328.265 631.35 324.654 633 320.5C636.703 311.179 636.74 308.86 633.25 304.954C629.635 300.909 624.022 300.08 618.773 302.817C615.636 304.453 614.865 304.542 613.901 303.38C612.473 301.66 607.942 301.588 605.684 303.25C603.686 304.721 592 332.168 592 335.391C592 338.48 593.855 340 597.627 340C601.861 340 603.822 337.426 608.483 325.747C610.513 320.661 612.839 315.757 613.652 314.85C615.676 312.59 618.583 311.975 620.527 313.396C621.993 314.468 621.856 315.31 619.073 322.316C615.347 331.695 615.106 336.261 618.223 338.443C620.154 339.796 626.319 340 665.272 340C701.83 340 710.601 339.741 712.818 338.594C715.154 337.386 715.808 337.386 717.46 338.594C718.915 339.658 723.649 340.041 736.941 340.17C753 340.326 753.603 340.393 744 340.949C733.002 341.587 729.304 342.819 725.375 347.155C721.993 350.887 721 353.527 721 358.786C721 364.19 723.456 368.802 728.209 372.322C731.534 374.786 740.398 375.684 745.328 374.057C750.444 372.368 756.232 366.083 759.588 358.571L762.5 352.054L825.286 352.027L888.071 352L890.11 347.25C895.723 334.176 897.552 314.765 894.561 300.005C889.496 275.006 873.981 254.768 851.673 244.059C840.588 238.738 833.577 237.027 819.977 236.323C807.508 235.678 796.521 237.247 786.864 241.054C780.494 243.564 778.696 242.649 776.459 235.76C775.52 232.867 772.905 226.9 770.649 222.5C765.658 212.768 753.76 200.362 744 194.712C726.666 184.677 705.307 182.5 685.273 188.726C680.324 190.264 679.937 190.253 678.023 188.52C676.684 187.309 676 185.434 676 182.976C676 176.922 673.163 162.084 670.364 153.5C664.844 136.566 655.228 121.091 642.064 107.954C617.243 83.186 583.214 71.093 549.256 74.974C529.466 77.235 531.548 77.86 524.354 67.5C501.866 35.111 468.036 12.265 429.5 3.44204C419.197 1.08304 414.884 0.65104 399 0.38604C386.284 0.17404 377.686 0.53004 371.5 1.52504ZM42.4998 258.883C34.8438 260.896 22.7998 270.494 18.1998 278.25C16.7178 280.749 16.0368 281 10.7388 281C5.88283 281 4.49883 281.41 2.45483 283.455C-1.83017 287.739 0.163832 293 6.07083 293C9.56683 293 9.56883 293.019 6.88283 300C5.58883 303.362 4.57783 308.804 4.28183 314C3.83083 321.925 3.99383 322.871 6.69283 327.985C8.80983 331.994 10.8998 334.28 14.4638 336.485L19.3398 339.5L61.2818 339.792C96.3148 340.035 103.583 339.848 105.405 338.654C107.27 337.432 107.863 337.426 109.485 338.612C111.781 340.291 148.281 340.605 154.074 338.996C159.259 337.556 161.396 334.709 165.705 323.5C168.916 315.145 169.934 313.445 171.89 313.165C174.142 312.843 174.106 312.985 170.927 316.941C168.239 320.286 167.545 322.138 167.202 326.887C166.813 332.257 167.021 332.992 169.806 336.111L172.833 339.5L201.238 339.793C218.648 339.973 230.669 339.696 232.294 339.078C235.264 337.949 236.886 333.633 235.293 331.095C234.509 329.846 231.886 329.392 223.194 329C216.27 328.688 211.627 328.03 210.848 327.25C209.85 326.25 210.591 325.991 214.55 325.956C227.98 325.838 234 321.947 234 313.384C234 309.528 233.474 308.274 230.69 305.49C219.403 294.203 198 306.201 198 323.816V329H190.071C177.986 329 176.453 326.177 183.689 317.25C186.033 314.358 187.912 313 189.567 313C192.481 313 196 309.757 196 307.071C196 303.083 193.412 302 183.877 302H174.896L173.848 298.994C172.389 294.808 168.565 293.945 165.536 297.118C164.285 298.428 160.647 306.137 157.452 314.25L151.641 329H148.321C146.494 329 145 328.543 145 327.986C145 327.428 146.575 323.065 148.5 318.291C153.469 305.968 153.037 302 146.724 302C142.627 302 140.391 305.018 135.58 317.043L131.396 327.5L124.698 327.796C121.014 327.958 118 327.839 118 327.531C118 327.223 119.575 323.065 121.5 318.291C125.182 309.161 125.787 305.187 123.8 303.2C122.152 301.552 117.882 301.694 115.33 303.482C113.48 304.777 113.063 304.781 112.007 303.508C111.342 302.708 109.226 301.758 107.303 301.397C96.8988 299.445 84.8208 310.276 83.3258 322.898L82.7208 328H76.8608C73.6368 328 70.9998 327.835 70.9998 327.634C70.9998 327.433 75.2748 316.774 80.4998 303.948C89.9158 280.833 91.1198 276.52 88.7998 274.2C87.0148 272.415 82.2518 272.748 80.1988 274.801C79.2078 275.792 73.7108 288.167 67.9828 302.301L57.5678 328L44.0338 327.976C28.7858 327.949 23.6398 327.085 20.5988 324.041C18.8038 322.243 18.5028 320.75 18.5188 313.72C18.5358 306.851 19.0018 304.491 21.3548 299.363L24.1708 293.227L37.3358 292.809C52.6948 292.323 57.9198 290.594 62.6078 284.447C65.0638 281.227 65.4998 279.74 65.4998 274.578C65.4998 267.67 63.0368 263.105 57.8668 260.431C54.2748 258.574 46.6138 257.802 42.4998 258.883ZM50.0468 271C50.5318 271 51.4108 271.9 51.9998 273C54.5618 277.788 49.0028 281 38.1548 281H31.6078L35.0538 277.378C38.7898 273.45 45.6938 269.744 47.8318 270.518C48.5638 270.783 49.5608 271 50.0468 271ZM306.702 274.407C305.491 275.73 302.73 281.243 300.567 286.657C292.689 306.37 293.184 305.476 291.162 303.647C286.393 299.331 277.063 300.937 270.859 307.141C265.463 312.537 263.049 318.13 263.022 325.3C262.996 332.157 264.9 336.38 268.967 338.483C272.691 340.409 282.959 340.481 285.532 338.6C287.174 337.4 287.733 337.4 289.446 338.6C292.33 340.62 327.911 340.615 331.818 338.594C334.154 337.386 334.808 337.386 336.46 338.594C337.881 339.633 341.813 340 351.536 340C367.195 340 366.271 340.613 371.999 326.426C375.595 317.519 379.415 312 381.984 312C382.464 312 383.53 312.673 384.352 313.495C385.679 314.822 385.462 315.946 382.424 323.481C380.541 328.15 379 332.673 379 333.531C379 334.389 380.105 336.195 381.455 337.545C383.896 339.987 384.013 340 403.83 340C414.786 340 425.143 339.721 426.846 339.381C431.459 338.458 436.974 333.182 437.957 328.75C439.123 323.496 437.769 318.633 433.353 312.222C430.417 307.959 429.548 305.727 429.527 302.389C429.492 296.743 427.172 294.211 423.266 295.553C421.153 296.279 419.388 298.626 415.786 305.502C410.528 315.541 409.759 320.265 413.093 322.05C415.984 323.597 419.651 322.463 421.657 319.4L423.34 316.832L424.635 319.166C426.855 323.168 426.347 326.918 423.435 328.025C420.449 329.16 393.998 329.362 394.005 328.25C394.007 327.837 395.383 323.968 397.062 319.651C399.127 314.343 399.918 310.903 399.506 309.027C398.049 302.394 389.648 299.231 382.875 302.765C379.801 304.369 378.975 304.455 377.434 303.328C374.889 301.467 370.601 301.675 368.743 303.75C367.881 304.712 365.064 310.788 362.484 317.25L357.792 329H350.896C347.103 329 344 328.849 344 328.665C344 328.481 345.817 323.869 348.039 318.415C350.26 312.962 351.947 307.383 351.789 306.018C351.387 302.566 346.861 301.006 343.204 303.059C340.806 304.405 340.201 304.377 337.061 302.776C332.342 300.37 329.318 300.539 323.288 303.544C316.023 307.164 311.029 314.586 310.277 322.881L309.722 329H303.254C298.49 329 296.913 328.671 297.266 327.75C297.53 327.063 302.078 315.829 307.373 302.786C312.668 289.743 317 277.946 317 276.571C317 271.826 310.344 270.427 306.702 274.407ZM489.474 275.399C487.186 278.891 466.908 328.944 466.302 332.594C465.885 335.111 466.3 336.091 468.529 337.844C471.233 339.971 471.812 340 511.667 340C555.912 340 556.341 339.949 561.257 334.107C566.439 327.948 565.862 321.384 559.298 311.843C556.54 307.833 555.771 305.751 555.837 302.464C555.942 297.27 553.409 294.429 549.54 295.401C547.541 295.902 545.933 298.163 541.999 306.001C536.513 316.935 536.11 318.884 538.829 321.345C541.61 323.862 544.674 323.36 547.174 319.979L549.407 316.958L550.668 319.229C552.857 323.171 552.331 326.924 549.435 328.025C546.671 329.075 511.968 329.366 508.25 328.37C504.086 327.254 505.953 326.297 513.55 325.655C525.356 324.657 528.94 321.868 528.978 313.65C528.997 309.475 528.538 308.338 525.679 305.479C521.62 301.42 516.369 300.219 510.057 301.907C500.634 304.428 494.22 312.485 493.266 323L492.722 329H486.861C483.554 329 481 328.557 481 327.983C481 327.423 485.275 316.513 490.5 303.739C499.933 280.677 501.105 276.505 498.8 274.2C496.647 272.047 491.213 272.745 489.474 275.399ZM145.455 288.455C140.705 293.204 143.322 300 149.902 300C156.904 300 159.775 292.328 154.365 288.073C150.905 285.351 148.453 285.456 145.455 288.455ZM763.68 315.842C762.648 320.987 759.179 327.72 757.309 328.209C756.273 328.48 754.43 328.333 753.213 327.883C748.189 326.025 751.986 314.456 758.418 312.024C761.689 310.787 764.312 312.691 763.68 315.842ZM108.829 314.322C109.329 316.958 105.056 326.899 102.936 328.034C95.1708 332.19 92.5058 323.049 99.2448 315.374C101.692 312.587 102.914 311.956 105.391 312.198C107.441 312.398 108.6 313.114 108.829 314.322ZM221.815 313.75C221.569 315.044 220.32 315.583 217.025 315.818C212.575 316.136 212.57 316.132 214.438 314.068C216.839 311.415 222.302 311.18 221.815 313.75ZM287.915 313.397C288.814 314.481 288.486 316.264 286.446 321.359C283.692 328.239 281.879 329.689 277.428 328.571C275.431 328.07 275 327.335 275 324.431C275 315.997 283.819 308.462 287.915 313.397ZM335.44 313.812C336.408 316.862 331.568 327.368 328.719 328.402C323.835 330.175 321.311 327.485 322.402 321.67C323.703 314.736 333.802 308.649 335.44 313.812ZM516.815 313.75C516.567 315.058 515.348 315.566 511.991 315.76L507.5 316.02L509.861 314.01C512.881 311.438 517.284 311.274 516.815 313.75ZM716.477 313.928C717.498 317.144 712.635 327.342 709.547 328.462C701.921 331.226 700.946 320.787 708.199 314.029C711.03 311.392 715.654 311.336 716.477 313.928ZM804.815 313.75C804.567 315.058 803.348 315.566 799.991 315.76L795.5 316.02L797.861 314.01C800.881 311.438 805.284 311.274 804.815 313.75ZM749 352.662C749 353.026 747.892 355.215 746.538 357.525C742.605 364.237 734.795 366.015 733.414 360.512C732.499 356.867 733.29 354.666 736.009 353.29C738.579 351.989 749 351.486 749 352.662Z" fill="black"/>
</svg>
